<?xml version="1.0" encoding="UTF-8" standalone="no"?>
<!-- Created with Inkscape (http://www.inkscape.org/) -->

<svg
   xmlns:dc="http://purl.org/dc/elements/1.1/"
   xmlns:cc="http://creativecommons.org/ns#"
   xmlns:rdf="http://www.w3.org/1999/02/22-rdf-syntax-ns#"
   xmlns:svg="http://www.w3.org/2000/svg"
   xmlns="http://www.w3.org/2000/svg"
   xmlns:sodipodi="http://sodipodi.sourceforge.net/DTD/sodipodi-0.dtd"
   xmlns:inkscape="http://www.inkscape.org/namespaces/inkscape"
   width="744.09448819"
   height="1052.3622047"
   id="svg2"
   version="1.1"
   inkscape:version="0.48.5 r10040"
   sodipodi:docname="gears.svg">
  <sodipodi:namedview
     id="base"
     pagecolor="#ffffff"
     bordercolor="#666666"
     borderopacity="1.0"
     inkscape:pageopacity="0.0"
     inkscape:pageshadow="2"
     inkscape:zoom="2.8"
     inkscape:cx="356.51104"
     inkscape:cy="836.74773"
     inkscape:document-units="px"
     inkscape:current-layer="layer1"
     showgrid="false"
     inkscape:window-width="1920"
     inkscape:window-height="1022"
     inkscape:window-x="-5"
     inkscape:window-y="-10"
     inkscape:window-maximized="1"
     showguides="true"
     inkscape:guide-bbox="true" />
  <defs
     id="defs4" />
  <metadata
     id="metadata7">
    <rdf:RDF>
      <cc:Work
         rdf:about="">
        <dc:format>image/svg+xml</dc:format>
        <dc:type
           rdf:resource="http://purl.org/dc/dcmitype/StillImage" />
        <dc:title />
      </cc:Work>
    </rdf:RDF>
  </metadata>
  <g
     inkscape:label="Layer 1"
     inkscape:groupmode="layer"
     id="layer1">
    <path
       inkscape:connector-curvature="0"
       id="path3079"
       d="m 365.53779,273.53776 c -8.44235,0 -15.42291,6.24343 -16.57275,14.36836 l 33.1455,0 c -1.14985,-8.12493 -8.1304,-14.36836 -16.57275,-14.36836 z m -16.57275,19.09584 c 1.14734,8.12776 8.12838,14.36836 16.57275,14.36836 8.44437,0 15.42541,-6.2406 16.57275,-14.36836 l -33.1455,0 z"
       style="fill:none;stroke:#000000;stroke-width:0.84988445;stroke-linejoin:round;stroke-miterlimit:4;stroke-opacity:1;stroke-dasharray:none;stroke-dashoffset:0" />
    <g
       id="g3947"
       style="fill:#000000;stroke-width:1;stroke-miterlimit:4;stroke-dasharray:none;fill-opacity:1"
       transform="translate(-5.0507627,-61.619305)">
      <path
         id="path3914"
         d="m 399.0625,61.3125 -4.125,6.875 -3.03125,6.96875 -3.34375,0.28125 -4.21875,-6.3125 -5.25,-6.0625 -2.34375,0.40625 -2.875,7.5 -1.78125,7.375 -3.25,0.875 -5.21875,-5.5 -6.25,-5.0625 -2.21875,0.8125 -1.53125,7.875 -0.46875,7.59375 -3.0625,1.40625 -6.09375,-4.5 -7.03125,-3.875 -2.03125,1.15625 -0.15625,8.03125 0.84375,7.5625 -2.75,1.90625 -6.78125,-3.375 -7.59375,-2.59375 -1.8125,1.5 1.25,7.9375 2.15625,7.28125 -2.375,2.375 -7.28125,-2.15625 -7.9375,-1.25 -1.53125,1.8125 2.625,7.59375 3.375,6.8125 -1.9375,2.75 -7.53125,-0.84375 -8.03125,0.125 -1.1875,2.03125 3.90625,7.03125 4.5,6.125 -1.40625,3.03125 -7.59375,0.46875 -7.875,1.5625 -0.8125,2.1875 5.0625,6.25 5.5,5.25 -0.875,3.21875 -7.375,1.8125 -7.5,2.875 -0.40625,2.3125 6.0625,5.28125 6.3125,4.1875 -0.28125,3.34375 -6.96875,3.03125 -6.875,4.15625 0,2.34375 6.875,4.15625 6.96875,3.03125 0.28125,3.34375 -6.3125,4.1875 -6.0625,5.28125 0.40625,2.3125 7.5,2.875 7.375,1.8125 0.875,3.21875 -5.5,5.25 -5.0625,6.25 0.8125,2.1875 7.875,1.53125 7.59375,0.5 1.40625,3.03125 -4.5,6.125 -3.90625,7.03125 1.1875,2.03125 8.03125,0.125 7.53125,-0.84375 1.9375,2.75 -3.375,6.8125 -2.625,7.59375 1.53125,1.8125 7.9375,-1.28125 7.28125,-2.125 2.375,2.375 -2.15625,7.28125 -1.25,7.9375 1.8125,1.5 7.59375,-2.59375 6.78125,-3.375 2.75,1.90625 -0.84375,7.5625 0.15625,8.03125 2.03125,1.15625 L 344,298 l 6.09375,-4.5 3.0625,1.40625 0.46875,7.59375 1.53125,7.875 2.21875,0.78125 6.25,-5.03125 5.21875,-5.5 3.25,0.875 1.78125,7.375 2.875,7.5 2.34375,0.40625 5.25,-6.0625 4.21875,-6.3125 3.34375,0.28125 3.03125,6.96875 4.125,6.875 2.375,0 4.125,-6.875 3.0625,-6.96875 3.34375,-0.28125 4.1875,6.3125 5.28125,6.0625 2.3125,-0.40625 2.875,-7.5 1.78125,-7.375 3.25,-0.875 5.25,5.5 6.21875,5.03125 2.21875,-0.78125 1.53125,-7.875 0.46875,-7.59375 3.0625,-1.40625 6.09375,4.5 7.03125,3.875 2.03125,-1.15625 0.15625,-8.03125 -0.84375,-7.5625 2.75,-1.90625 6.8125,3.375 7.59375,2.59375 1.78125,-1.5 -1.25,-7.9375 -2.125,-7.28125 2.375,-2.375 7.28125,2.125 L 498,273.5 l 1.53125,-1.8125 -2.625,-7.59375 -3.375,-6.8125 1.9375,-2.75 7.53125,0.84375 8.03125,-0.125 1.1875,-2.03125 -3.90625,-7.03125 -4.5,-6.125 1.4375,-3.03125 7.5625,-0.5 7.875,-1.53125 0.8125,-2.1875 -5.03125,-6.25 -5.5,-5.25 0.84375,-3.21875 7.40625,-1.8125 7.46875,-2.875 0.40625,-2.3125 -6.03125,-5.28125 -6.34375,-4.1875 0.3125,-3.34375 6.9375,-3.03125 6.875,-4.15625 0,-2.34375 -6.875,-4.15625 -6.9375,-3.03125 -0.3125,-3.34375 6.34375,-4.1875 6.03125,-5.28125 -0.40625,-2.3125 -7.46875,-2.875 -7.40625,-1.8125 -0.84375,-3.21875 5.5,-5.25 5.03125,-6.25 -0.8125,-2.1875 -7.875,-1.5625 -7.5625,-0.46875 -1.4375,-3.03125 4.5,-6.125 3.90625,-7.03125 -1.1875,-2.03125 -8.03125,-0.125 -7.53125,0.84375 -1.9375,-2.75 3.375,-6.8125 2.625,-7.59375 -1.53125,-1.8125 -7.90625,1.25 -7.28125,2.15625 -2.375,-2.375 2.125,-7.28125 1.25,-7.9375 -1.78125,-1.5 -7.59375,2.59375 -6.8125,3.375 -2.75,-1.90625 0.84375,-7.5625 -0.15625,-8.03125 -2.03125,-1.15625 -7.03125,3.875 -6.09375,4.5 -3.0625,-1.40625 -0.46875,-7.59375 -1.53125,-7.875 -2.21875,-0.8125 -6.21875,5.0625 -5.25,5.5 -3.25,-0.875 -1.78125,-7.375 -2.875,-7.5 -2.3125,-0.40625 -5.28125,6.0625 -4.1875,6.3125 -3.34375,-0.28125 -3.0625,-6.96875 -4.125,-6.875 -2.375,0 z m 1.1875,23.65625 c 57.96328,0 104.96875,46.97422 104.96875,104.9375 0,57.96328 -47.00547,104.96875 -104.96875,104.96875 -57.96328,0 -104.9375,-47.00547 -104.9375,-104.96875 0,-57.96328 46.97422,-104.9375 104.9375,-104.9375 z"
         style="fill:#000000;stroke:#000000;stroke-width:1;stroke-miterlimit:4;stroke-dasharray:none;fill-opacity:1"
         inkscape:connector-curvature="0" />
      <path
         inkscape:connector-curvature="0"
         id="path3939"
         d="m 400.23355,88.43317 c -55.21454,0 -99.95703,45.45403 -99.95703,101.50541 0,56.05137 44.74249,101.472 99.95703,101.472 55.21453,0 99.98993,-45.42063 99.98993,-101.472 0,-56.05138 -44.7754,-101.50541 -99.98993,-101.50541 z m 0,8.65084 c 50.51542,0 91.46824,41.57351 91.46824,92.85457 0,51.28105 -40.95282,92.85456 -91.46824,92.85456 -50.51543,0 -91.46825,-41.57351 -91.46825,-92.85456 0,-51.28106 40.95282,-92.85457 91.46825,-92.85457 z"
         style="fill:#000000;stroke:#000000;stroke-width:1;stroke-linejoin:round;stroke-miterlimit:4;stroke-opacity:1;stroke-dasharray:none;stroke-dashoffset:0;fill-opacity:1" />
    </g>
    <path
       inkscape:connector-curvature="0"
       id="path3969"
       d="m 614.23138,67.81274 -1.78125,6.46875 -0.0625,1.1875 0.34375,5.1875 -8.84375,1.15625 -1,-5.09375 -0.34375,-1.125 -3.40625,-5.78125 -6.1875,1.65625 -0.0625,6.71875 0.25,1.125 1.65625,4.9375 -8.21875,3.40625 -2.28125,-4.65625 -0.65625,-1 -4.78125,-4.6875 -5.53125,3.1875 1.65625,6.5 0.53125,1.03125 2.90625,4.34375 -7.0625,5.40625 -3.4375,-3.90625 -0.84375,-0.78125 -5.84375,-3.3125 -4.53125,4.53125 3.3125,5.84375 0.78125,0.875 3.90625,3.40625 -5.40625,7.0625 -4.34375,-2.875 -1.03125,-0.53125 -6.5,-1.6875 -3.1875,5.53125 4.6875,4.8125 0.96875,0.625 4.6875,2.28125 -3.40625,8.25 -4.9375,-1.6875 -1.125,-0.25 -6.71875,0.0625 -1.65625,6.1875 5.78125,3.40625 1.125,0.34375 5.09375,1.03125 -1.15625,8.8125 -5.1875,-0.34375 -1.1875,0.0625 -6.46875,1.78125 0,6.40625 6.46875,1.8125 1.1875,0.0625 5.1875,-0.375 1.15625,8.84375 -5.09375,1 -1.125,0.375 -5.78125,3.40625 1.65625,6.1875 6.71875,0.0625 1.125,-0.25 4.9375,-1.6875 3.40625,8.21875 -4.6875,2.3125 -0.96875,0.625 -4.6875,4.78125 3.1875,5.5625 6.5,-1.6875 1.03125,-0.53125 4.34375,-2.90625 5.40625,7.0625 -3.90625,3.4375 -0.78125,0.875 -3.3125,5.84375 4.53125,4.5 5.84375,-3.28125 0.84375,-0.78125 3.4375,-3.9375 7.0625,5.4375 -2.90625,4.3125 -0.53125,1.03125 -1.65625,6.5 5.53125,3.21875 4.78125,-4.71875 0.65625,-0.96875 2.28125,-4.6875 8.21875,3.40625 -1.65625,4.9375 -0.25,1.15625 0.0625,6.6875 6.1875,1.65625 3.40625,-5.78125 0.34375,-1.09375 1,-5.125 8.84375,1.1875 -0.34375,5.1875 0.0625,1.15625 1.78125,6.46875 6.40625,0 1.78125,-6.46875 0.0625,-1.15625 -0.34375,-5.1875 8.84375,-1.1875 1,5.125 0.34375,1.09375 3.4375,5.78125 6.15625,-1.65625 0.0625,-6.6875 -0.21875,-1.15625 -1.6875,-4.9375 8.21875,-3.40625 2.28125,4.6875 0.65625,0.96875 4.78125,4.71875 5.53125,-3.21875 -1.65625,-6.5 -0.53125,-1.03125 -2.90625,-4.3125 7.0625,-5.4375 3.4375,3.9375 0.84375,0.78125 5.84375,3.28125 4.53125,-4.5 -3.28125,-5.84375 -0.8125,-0.875 -3.90625,-3.4375 5.4375,-7.0625 4.3125,2.90625 1.03125,0.53125 6.5,1.6875 3.21875,-5.5625 -4.71875,-4.78125 -0.96875,-0.625 -4.6875,-2.3125 3.40625,-8.21875 4.9375,1.6875 1.125,0.25 6.71875,-0.0625 1.65625,-6.1875 -5.78125,-3.40625 -1.09375,-0.375 -5.125,-1 1.15625,-8.84375 5.21875,0.375 1.15625,-0.0625 6.46875,-1.8125 0,-6.40625 -6.46875,-1.78125 -1.15625,-0.0625 -5.21875,0.34375 -1.15625,-8.8125 5.125,-1.03125 1.09375,-0.34375 5.78125,-3.40625 -1.65625,-6.1875 -6.71875,-0.0625 -1.125,0.25 -4.9375,1.6875 -3.40625,-8.25 4.6875,-2.28125 0.96875,-0.625 4.71875,-4.8125 -3.21875,-5.53125 -6.5,1.6875 -1.03125,0.53125 -4.3125,2.875 -5.4375,-7.0625 3.90625,-3.40625 0.8125,-0.875 3.28125,-5.84375 -4.53125,-4.53125 -5.84375,3.3125 -0.84375,0.78125 -3.4375,3.90625 -7.0625,-5.40625 2.90625,-4.34375 0.53125,-1.03125 1.65625,-6.5 -5.53125,-3.1875 -4.78125,4.6875 -0.65625,1 -2.28125,4.65625 -8.21875,-3.40625 1.6875,-4.9375 0.21875,-1.125 -0.0625,-6.71875 -6.15625,-1.65625 -3.4375,5.78125 -0.34375,1.125 -1,5.09375 -8.84375,-1.15625 0.34375,-5.1875 -0.0625,-1.1875 -1.78125,-6.46875 -6.40625,0 z m 10.5625,19.5 c 29.62325,3.41066 53.05049,27.16479 55.96875,56.9375 l -36.9375,0 c -2.26642,-9.58954 -9.59576,-17.19436 -19.03125,-19.84375 l 0,-37.09375 z m -15.15625,0.0625 0,37.15625 c -9.22339,2.76024 -16.36274,10.279 -18.59375,19.71875 l -36.9375,0 c 2.90586,-29.61495 26.12696,-53.26825 55.53125,-56.875 z m 7.5625,46.75 c 9.48416,0 17.1875,7.70334 17.1875,17.1875 0,9.48416 -7.70334,17.15625 -17.1875,17.15625 -9.48416,0 -17.15625,-7.67209 -17.15625,-17.15625 0,-9.48416 7.67209,-17.1875 17.15625,-17.1875 z m -62.78125,25.25 37.375,0 c 2.83591,8.21033 9.4835,14.62307 17.84375,17.125 l 0,37.15625 c -28.5497,-3.49827 -51.26274,-25.8782 -55.21875,-54.28125 z m 88.65625,0 37.375,0 c -3.97359,28.55889 -26.8894,51.03516 -55.65625,54.34375 l 0,-37.09375 c 8.5663,-2.40533 15.39569,-8.89593 18.28125,-17.25 z"
       style="fill:none;stroke:#000000" />
    <path
       style="fill:none;stroke:#000000;fill-opacity:1"
       d="M 134.25 14.46875 L 132.625 20.875 L 132.5 22.625 L 132.6875 27.25 L 123.6875 28.0625 L 123.09375 23.46875 L 122.65625 21.75 L 119.9375 15.71875 L 113.3125 16.875 L 112.8125 23.5 L 113 25.25 L 114 29.75 L 105.25 32.09375 L 103.875 27.6875 L 103.15625 26.09375 L 99.4375 20.59375 L 93.09375 22.90625 L 93.75 29.5 L 94.25 31.1875 L 96.03125 35.46875 L 87.8125 39.28125 L 85.6875 35.1875 L 84.6875 33.71875 L 80.0625 28.96875 L 74.25 32.34375 L 76.03125 38.71875 L 76.8125 40.3125 L 79.3125 44.1875 L 71.875 49.40625 L 69.0625 45.71875 L 67.84375 44.46875 L 62.46875 40.59375 L 57.3125 44.90625 L 60.1875 50.875 L 61.21875 52.3125 L 64.34375 55.71875 L 57.96875 62.125 L 54.5625 58.96875 L 53.125 57.96875 L 47.15625 55.0625 L 42.8125 60.21875 L 46.6875 65.625 L 47.96875 66.84375 L 51.625 69.65625 L 46.4375 77.0625 L 42.53125 74.5625 L 40.96875 73.8125 L 34.59375 72 L 31.21875 77.84375 L 35.96875 82.46875 L 37.40625 83.4375 L 41.53125 85.5625 L 37.6875 93.78125 L 33.4375 92 L 31.75 91.53125 L 25.15625 90.84375 L 22.84375 97.1875 L 28.3125 100.90625 L 29.9375 101.625 L 34.34375 103 L 32 111.75 L 27.46875 110.75 L 25.75 110.5625 L 19.125 111.0625 L 17.96875 117.6875 L 24 120.40625 L 25.71875 120.84375 L 30.28125 121.4375 L 29.5 130.46875 L 24.875 130.25 L 23.125 130.375 L 16.71875 132 L 16.71875 138.75 L 23.125 140.375 L 24.875 140.5 L 29.5 140.28125 L 30.28125 149.3125 L 25.71875 149.90625 L 24 150.34375 L 17.96875 153.0625 L 19.125 159.6875 L 25.75 160.1875 L 27.46875 160 L 32 159 L 34.34375 167.71875 L 29.9375 169.125 L 28.3125 169.84375 L 22.84375 173.5625 L 25.15625 179.875 L 31.75 179.21875 L 33.4375 178.75 L 37.6875 176.96875 L 41.53125 185.1875 L 37.40625 187.3125 L 35.96875 188.28125 L 31.21875 192.90625 L 34.59375 198.75 L 40.96875 196.9375 L 42.53125 196.1875 L 46.4375 193.6875 L 51.625 201.09375 L 47.96875 203.90625 L 46.6875 205.125 L 42.8125 210.5 L 47.15625 215.65625 L 53.125 212.78125 L 54.5625 211.75 L 57.96875 208.625 L 64.34375 215.03125 L 61.21875 218.4375 L 60.1875 219.84375 L 57.3125 225.84375 L 62.46875 230.15625 L 67.84375 226.28125 L 69.0625 225.03125 L 71.875 221.34375 L 79.3125 226.53125 L 76.8125 230.4375 L 76.03125 232.03125 L 74.25 238.40625 L 80.0625 241.78125 L 84.6875 237.03125 L 85.6875 235.5625 L 87.8125 231.46875 L 96.03125 235.28125 L 94.25 239.5625 L 93.75 241.25 L 93.09375 247.84375 L 99.4375 250.15625 L 103.15625 244.65625 L 103.875 243.0625 L 105.25 238.65625 L 114 241 L 113 245.5 L 112.8125 247.25 L 113.3125 253.875 L 119.9375 255.03125 L 122.65625 248.96875 L 123.09375 247.28125 L 123.6875 242.6875 L 132.6875 243.5 L 132.5 248.09375 L 132.625 249.84375 L 134.25 256.28125 L 140.96875 256.28125 L 142.625 249.84375 L 142.75 248.09375 L 142.53125 243.5 L 151.5625 242.6875 L 152.15625 247.28125 L 152.5625 248.96875 L 155.28125 255.03125 L 161.9375 253.875 L 162.40625 247.25 L 162.25 245.5 L 161.21875 241 L 169.96875 238.65625 L 171.34375 243.0625 L 172.0625 244.65625 L 175.8125 250.15625 L 182.125 247.84375 L 181.46875 241.25 L 181 239.5625 L 179.21875 235.28125 L 187.40625 231.46875 L 189.53125 235.5625 L 190.53125 237.03125 L 195.15625 241.78125 L 201 238.40625 L 199.1875 232.03125 L 198.40625 230.4375 L 195.9375 226.53125 L 203.34375 221.34375 L 206.15625 225.03125 L 207.375 226.28125 L 212.75 230.15625 L 217.90625 225.84375 L 215.03125 219.84375 L 214 218.4375 L 210.875 215.03125 L 217.28125 208.625 L 220.6875 211.75 L 222.09375 212.78125 L 228.0625 215.65625 L 232.40625 210.5 L 228.53125 205.125 L 227.28125 203.90625 L 223.59375 201.09375 L 228.78125 193.6875 L 232.6875 196.1875 L 234.25 196.9375 L 240.65625 198.75 L 244 192.90625 L 239.25 188.28125 L 237.8125 187.3125 L 233.6875 185.1875 L 237.53125 176.96875 L 241.8125 178.75 L 243.46875 179.21875 L 250.09375 179.875 L 252.375 173.5625 L 246.90625 169.84375 L 245.3125 169.125 L 240.875 167.71875 L 243.21875 159 L 247.75 160 L 249.5 160.1875 L 256.09375 159.6875 L 257.28125 153.0625 L 251.21875 150.34375 L 249.53125 149.90625 L 244.9375 149.3125 L 245.71875 140.28125 L 250.34375 140.5 L 252.09375 140.375 L 258.53125 138.75 L 258.53125 132 L 252.09375 130.375 L 250.34375 130.25 L 245.71875 130.46875 L 244.9375 121.4375 L 249.53125 120.84375 L 251.21875 120.40625 L 257.28125 117.6875 L 256.09375 111.0625 L 249.5 110.5625 L 247.75 110.75 L 243.21875 111.75 L 240.875 103 L 245.3125 101.625 L 246.90625 100.90625 L 252.375 97.1875 L 250.09375 90.84375 L 243.46875 91.53125 L 241.8125 92 L 237.53125 93.78125 L 233.6875 85.5625 L 237.8125 83.4375 L 239.25 82.46875 L 244 77.84375 L 240.65625 72 L 234.25 73.8125 L 232.6875 74.5625 L 228.78125 77.0625 L 223.59375 69.65625 L 227.28125 66.84375 L 228.53125 65.625 L 232.40625 60.21875 L 228.0625 55.0625 L 222.09375 57.96875 L 220.6875 58.96875 L 217.28125 62.125 L 210.875 55.71875 L 214 52.3125 L 215.03125 50.875 L 217.90625 44.90625 L 212.75 40.59375 L 207.375 44.46875 L 206.15625 45.71875 L 203.34375 49.40625 L 195.9375 44.1875 L 198.40625 40.3125 L 199.1875 38.71875 L 201 32.34375 L 195.15625 28.96875 L 190.53125 33.71875 L 189.53125 35.1875 L 187.40625 39.28125 L 179.21875 35.46875 L 181 31.1875 L 181.46875 29.5 L 182.125 22.90625 L 175.8125 20.59375 L 172.0625 26.09375 L 171.34375 27.6875 L 169.96875 32.09375 L 161.21875 29.75 L 162.25 25.25 L 162.40625 23.5 L 161.9375 16.875 L 155.28125 15.71875 L 152.5625 21.75 L 152.15625 23.46875 L 151.5625 28.0625 L 142.53125 27.25 L 142.75 22.625 L 142.625 20.875 L 140.96875 14.46875 L 134.25 14.46875 z M 137.625 40.40625 C 156.38218 40.40625 173.87084 45.861156 188.59375 55.25 C 172.33497 58.512443 143.78755 65.65483 137.5 76.65625 C 134.22881 82.379888 131.65999 91.171665 129.75 99.875 C 122.73873 101.42118 116.505 104.98812 111.65625 109.9375 C 108.74388 106.19401 105.98117 101.89812 103.5 96.9375 C 94.344307 78.632476 98.790407 58.868763 103.34375 46.78125 C 113.97859 42.661749 125.53723 40.40625 137.625 40.40625 z M 91.46875 52.375 C 86.174523 67.926127 77.768258 96.917309 84.25 108.03125 C 87.835278 114.17877 94.93213 121.37938 102.0625 127.75 C 101.53952 130.20518 101.25 132.76384 101.25 135.375 C 101.25 137.94115 101.52568 140.45904 102.03125 142.875 C 97.567107 143.44095 92.734838 143.65536 87.53125 143.34375 C 67.169883 142.12444 52.333758 128.4786 44.125 118.5 C 49.22996 90.035407 67.052679 65.98373 91.46875 52.375 z M 198.875 62.8125 C 219.4797 80.234436 232.5625 106.27819 232.5625 135.375 C 232.5625 137.50754 232.48211 139.62129 232.34375 141.71875 C 222.33558 130.03863 199.50975 105.28359 185.78125 105.34375 C 179.60668 105.3708 171.42773 107.32228 163.4375 109.78125 C 159.60812 105.91925 154.92619 102.90446 149.6875 101.0625 C 151.45769 96.759861 153.76336 92.306083 156.75 87.78125 C 167.66864 71.239219 186.14221 65.091952 198.875 62.8125 z M 137.625 113.15625 C 149.89862 113.15625 159.84375 123.10138 159.84375 135.375 C 159.84375 147.64862 149.89862 157.59375 137.625 157.59375 C 125.35138 157.59375 115.40625 147.64862 115.40625 135.375 C 115.40625 123.10138 125.35138 113.15625 137.625 113.15625 z M 179.875 127.4375 C 181.78768 127.41139 183.75856 127.44137 185.78125 127.5625 C 207.45524 128.86041 222.83377 144.27011 230.65625 154.3125 C 224.5242 184.59872 203.99071 209.67845 176.5 222.03125 C 181.69569 207.12876 191.24589 175.87045 184.46875 164.25 C 181.68155 159.47091 176.77077 154.07468 171.375 148.90625 C 173.05383 144.72251 174 140.15888 174 135.375 C 174 132.78511 173.70222 130.24917 173.1875 127.8125 C 175.33979 127.59496 177.55769 127.46914 179.875 127.4375 z M 42.75 131.25 C 53.514011 143.57005 74.590249 165.65046 87.53125 165.59375 C 94.125488 165.56485 103.00556 163.35485 111.5 160.65625 C 116.0525 165.35961 121.84853 168.85252 128.375 170.5625 C 126.57011 175.07648 124.17771 179.76428 121.03125 184.53125 C 109.96451 201.29766 91.150614 207.38851 78.40625 209.59375 C 56.618515 192.19933 42.65625 165.42214 42.65625 135.375 C 42.65625 133.98835 42.691136 132.62218 42.75 131.25 z M 158.90625 164.875 C 161.13682 168.00279 163.27603 171.4909 165.21875 175.375 C 174.58202 194.09503 169.68378 214.28057 165.03125 226.28125 C 156.35643 228.89075 147.15136 230.3125 137.625 230.3125 C 119.94765 230.3125 103.39382 225.47304 89.21875 217.0625 C 105.48126 213.79805 133.99647 206.65281 140.28125 195.65625 C 143.85187 189.40868 146.57429 179.51811 148.53125 170.0625 C 152.28892 168.88238 155.78409 167.13227 158.90625 164.875 z "
       id="path4037" />
    <path
       style="fill:#000000;fill-opacity:1;stroke:#000000;stroke-width:1;stroke-linejoin:round;stroke-miterlimit:4;stroke-opacity:1;stroke-dashoffset:0"
       d="m 546.49254,30.087805 c 0,0 41.49222,-15.076016 63.13453,-15.152288 22.2977,-0.07858 64.14468,42.426407 64.14468,42.426407 0,7.744503 -1.01016,7.407785 -1.01016,15.152289 0,0 -22.90192,-33.417324 -63.13452,-35.355339 -40.2326,-1.938015 -63.13453,16.16244 -63.13453,16.16244 0,-7.744503 0,-15.489006 0,-23.233509 z"
       id="rect4062"
       inkscape:connector-curvature="0"
       sodipodi:nodetypes="cscczcc" />
    <path
       inkscape:connector-curvature="0"
       id="path5134"
       d="m 262.14732,226.05804 -3.5625,6.6875 -0.5625,3.6875 0.4375,2.75 -6.1875,1.65625 -1,-2.59375 -2.34375,-2.90625 -6.4375,-4 -2.40625,1.40625 0.21875,7.5625 1.375,3.5 1.75,2.15625 -4.53125,4.53125 -2.15625,-1.78125 -3.5,-1.34375 -7.5625,-0.25 -1.40625,2.4375 4,6.4375 2.90625,2.34375 2.625,0.96875 -1.65625,6.21875 -2.75,-0.46875 -3.71875,0.5625 -6.65625,3.59375 0,2.8125 6.65625,3.5625 3.71875,0.5625 2.75,-0.4375 1.65625,6.1875 -2.625,1 -2.90625,2.34375 -4,6.4375 1.40625,2.40625 7.5625,-0.21875 3.5,-1.375 2.15625,-1.75 4.53125,4.53125 -1.75,2.15625 -1.375,3.5 -0.21875,7.5625 2.40625,1.40625 6.4375,-4 2.34375,-2.90625 1,-2.625 6.1875,1.65625 -0.4375,2.75 0.5625,3.71875 3.5625,6.65625 2.8125,0 3.59375,-6.65625 0.5625,-3.71875 -0.46875,-2.75 6.21875,-1.65625 0.96875,2.625 2.34375,2.90625 6.4375,4 2.4375,-1.40625 -0.25,-7.5625 -1.34375,-3.5 -1.78125,-2.15625 4.53125,-4.53125 2.15625,1.75 3.5,1.375 7.5625,0.21875 1.40625,-2.40625 -4,-6.4375 -2.90625,-2.34375 -2.625,-1 1.6875,-6.1875 2.75,0.4375 3.6875,-0.5625 6.65625,-3.5625 0,-2.8125 -6.65625,-3.59375 -3.6875,-0.5625 -2.75,0.46875 -1.6875,-6.21875 2.625,-0.96875 2.90625,-2.34375 4,-6.4375 -1.40625,-2.4375 -7.5625,0.25 -3.5,1.34375 -2.15625,1.78125 -4.53125,-4.53125 1.78125,-2.15625 1.34375,-3.5 0.25,-7.5625 -2.4375,-1.40625 -6.4375,4 -2.34375,2.90625 -0.96875,2.59375 -6.21875,-1.65625 0.46875,-2.75 -0.5625,-3.6875 -3.59375,-6.6875 -2.8125,0 z m 1.40625,30.625 c 7.69254,0 13.9375,6.24496 13.9375,13.9375 0,7.69254 -6.24496,13.9375 -13.9375,13.9375 -7.69254,0 -13.9375,-6.24496 -13.9375,-13.9375 0,-7.69254 6.24496,-13.9375 13.9375,-13.9375 z"
       style="fill:none;stroke:#000000" />
    <path
       sodipodi:nodetypes="caaaccaaacc"
       inkscape:connector-curvature="0"
       id="rect5158"
       d="m 30.357128,518.07645 c 0,0 16.24864,-10.39398 25.44643,-10.71429 9.20855,-0.32069 17.7452,5.17632 26.16071,8.92858 10.24659,4.56867 18.161302,16.08457 29.375002,16.42857 7.9565,0.24407 21.51786,-10.35715 21.51786,-10.35715 l 0.71429,3.21429 c 0,0 -13.67711,10.73905 -21.875,11.42857 -10.38226,0.87325 -20.249892,-5.32537 -29.732152,-9.64286 -9.25801,-4.21537 -16.02041,-14.90529 -26.16071,-15.71428 -9.23884,-0.73708 -25.80357,10.35714 -25.80357,10.35714 z"
       style="fill:none;stroke:#000000;stroke-width:1;stroke-linejoin:round;stroke-miterlimit:4;stroke-opacity:1;stroke-dashoffset:0" />
    <path
       inkscape:connector-curvature="0"
       id="path5217"
       d="m 63.892857,260.95982 -1.78125,0.3125 -2.90625,7.1875 -0.78125,6.875 -3.59375,1.3125 -5,-4.75 -6.8125,-3.65625 -1.59375,0.90625 -0.25,7.71875 1.625,6.71875 -2.9375,2.46875 -6.34375,-2.75 -7.65625,-1.09375 -1.15625,1.375 2.40625,7.375 3.8125,5.75 -1.90625,3.3125 -6.90625,-0.40625 -7.5625,1.5625 -0.625,1.71875 4.78125,6.09375 5.5625,4.09375 -0.6875,3.78125 -6.625,1.96875 -6.5625,4.0625 0,1.8125 6.5625,4.09375 6.625,1.96875 0.6875,3.75 -5.5625,4.125 -4.78125,6.09375 0.625,1.6875 7.5625,1.59375 6.90625,-0.40625 1.90625,3.3125 -3.8125,5.75 -2.40625,7.34375 1.15625,1.40625 7.65625,-1.09375 6.34375,-2.75 2.9375,2.4375 -1.625,6.71875 0.25,7.75 1.59375,0.90625 6.8125,-3.65625 5,-4.75 3.59375,1.3125 0.78125,6.84375 2.90625,7.1875 1.78125,0.3125 5.15625,-5.75 3.09375,-6.1875 3.8125,0 3.09375,6.1875 5.15625,5.75 1.78125,-0.3125 2.875,-7.1875 0.78125,-6.84375 3.59375,-1.3125 5.03125,4.75 6.812503,3.65625 1.59375,-0.90625 0.21875,-7.75 -1.59375,-6.71875 2.9375,-2.4375 6.3125,2.75 7.6875,1.09375 1.15625,-1.40625 -2.40625,-7.34375 -3.8125,-5.75 1.90625,-3.3125 6.90625,0.40625 7.5625,-1.59375 0.625,-1.6875 -4.78125,-6.09375 -5.5625,-4.125 0.65625,-3.75 6.625,-1.96875 6.59375,-4.09375 0,-1.8125 -6.59375,-4.0625 -6.625,-1.96875 -0.65625,-3.78125 5.5625,-4.09375 4.78125,-6.09375 -0.625,-1.71875 -7.5625,-1.5625 -6.90625,0.40625 -1.90625,-3.3125 3.8125,-5.75 2.40625,-7.375 -1.15625,-1.375 -7.6875,1.09375 -6.3125,2.75 -2.9375,-2.46875 1.59375,-6.71875 -0.21875,-7.71875 -1.59375,-0.90625 -6.812503,3.65625 -5.03125,4.75 -3.59375,-1.3125 -0.78125,-6.875 -2.875,-7.1875 -1.78125,-0.3125 -5.15625,5.78125 -3.09375,6.1875 -3.8125,0 -3.09375,-6.1875 -5.15625,-5.78125 z m 10.15625,26.4375 c 20.11894,0 36.437503,16.28731 36.437503,36.40625 0,20.11894 -16.318563,36.4375 -36.437503,36.4375 -20.118944,0 -36.4375,-16.31856 -36.4375,-36.4375 0,-20.11894 16.318556,-36.40625 36.4375,-36.40625 z m 0,2.84375 c -18.540989,0 -33.5625,15.02151 -33.5625,33.5625 0,18.54099 15.021511,33.59375 33.5625,33.59375 18.54099,0 33.562503,-15.05276 33.562503,-33.59375 0,-18.54099 -15.021513,-33.5625 -33.562503,-33.5625 z m 0,22.125 c 6.31183,0 11.4375,5.12567 11.4375,11.4375 0,6.31183 -5.12567,11.4375 -11.4375,11.4375 -6.31183,0 -11.4375,-5.12567 -11.4375,-11.4375 0,-6.31183 5.12567,-11.4375 11.4375,-11.4375 z"
       style="fill:none;stroke:#000000" />
    <path
       style="fill:none;stroke:#000000;fill-opacity:1"
       d="M 264.46875 339.78125 L 258.75 340.375 L 257.3125 347 L 257.25 350.3125 L 257.78125 353.375 L 249.71875 355.09375 L 248.9375 352.09375 L 247.53125 349.09375 L 243.53125 343.59375 L 238.0625 345.375 L 238.03125 352.1875 L 238.65625 355.40625 L 239.8125 358.3125 L 232.28125 361.65625 L 230.875 358.875 L 228.90625 356.25 L 223.8125 351.71875 L 218.875 354.59375 L 220.25 361.25 L 221.53125 364.28125 L 223.25 366.875 L 216.59375 371.71875 L 214.65625 369.28125 L 212.15625 367.125 L 206.25 363.75 L 202 367.59375 L 204.71875 373.8125 L 206.625 376.5 L 208.84375 378.6875 L 203.34375 384.8125 L 200.9375 382.84375 L 198.03125 381.21875 L 191.5625 379.15625 L 188.1875 383.8125 L 192.15625 389.3125 L 194.59375 391.5625 L 197.21875 393.25 L 193.09375 400.375 L 190.3125 398.9375 L 187.15625 397.96875 L 180.40625 397.28125 L 178.0625 402.53125 L 183.09375 407.09375 L 185.9375 408.8125 L 188.84375 409.90625 L 186.3125 417.71875 L 183.3125 416.90625 L 180 416.625 L 173.25 417.34375 L 172.0625 422.96875 L 177.9375 426.40625 L 181.0625 427.46875 L 184.125 427.9375 L 183.28125 436.125 L 180.1875 435.9375 L 176.90625 436.34375 L 170.4375 438.46875 L 170.4375 444.1875 L 176.90625 446.3125 L 180.1875 446.71875 L 183.28125 446.53125 L 184.125 454.71875 L 181.0625 455.1875 L 177.9375 456.28125 L 172.0625 459.6875 L 173.25 465.3125 L 180 466.03125 L 183.3125 465.75 L 186.3125 464.9375 L 188.84375 472.75 L 185.9375 473.84375 L 183.09375 475.5625 L 178.0625 480.125 L 180.40625 485.375 L 187.15625 484.6875 L 190.3125 483.71875 L 193.09375 482.28125 L 197.21875 489.40625 L 194.59375 491.09375 L 192.15625 493.34375 L 188.1875 498.84375 L 191.5625 503.5 L 198.03125 501.4375 L 200.9375 499.8125 L 203.34375 497.84375 L 208.84375 503.96875 L 206.625 506.15625 L 204.71875 508.84375 L 202 515.0625 L 206.25 518.90625 L 212.15625 515.53125 L 214.65625 513.375 L 216.59375 510.9375 L 223.25 515.78125 L 221.53125 518.375 L 220.25 521.40625 L 218.875 528.0625 L 223.8125 530.9375 L 228.90625 526.40625 L 230.875 523.78125 L 232.28125 521 L 239.8125 524.34375 L 238.65625 527.25 L 238.03125 530.46875 L 238.0625 537.28125 L 243.53125 539.0625 L 247.53125 533.5625 L 248.9375 530.5625 L 249.71875 527.5625 L 257.78125 529.28125 L 257.25 532.34375 L 257.3125 535.65625 L 258.75 542.28125 L 264.46875 542.875 L 267.25 536.6875 L 268 533.46875 L 268.125 530.375 L 276.375 530.375 L 276.5 533.46875 L 277.25 536.6875 L 280.03125 542.875 L 285.75 542.28125 L 287.1875 535.65625 L 287.25 532.34375 L 286.75 529.28125 L 294.78125 527.5625 L 295.59375 530.5625 L 296.96875 533.5625 L 301 539.0625 L 306.4375 537.28125 L 306.46875 530.46875 L 305.84375 527.25 L 304.71875 524.34375 L 312.21875 521 L 313.625 523.78125 L 315.59375 526.40625 L 320.6875 530.9375 L 325.65625 528.0625 L 324.25 521.40625 L 322.96875 518.375 L 321.25 515.78125 L 327.90625 510.9375 L 329.875 513.375 L 332.34375 515.53125 L 338.25 518.90625 L 342.5 515.0625 L 339.78125 508.84375 L 337.875 506.15625 L 335.65625 503.96875 L 341.1875 497.84375 L 343.59375 499.8125 L 346.46875 501.4375 L 352.9375 503.5 L 356.3125 498.84375 L 352.34375 493.34375 L 349.90625 491.09375 L 347.3125 489.40625 L 351.40625 482.28125 L 354.1875 483.71875 L 357.34375 484.6875 L 364.09375 485.375 L 366.4375 480.125 L 361.40625 475.5625 L 358.5625 473.84375 L 355.65625 472.75 L 358.1875 464.9375 L 361.1875 465.75 L 364.5 466.03125 L 371.25 465.3125 L 372.4375 459.6875 L 366.5625 456.28125 L 363.4375 455.1875 L 360.375 454.71875 L 361.21875 446.53125 L 364.34375 446.71875 L 367.625 446.3125 L 374.0625 444.1875 L 374.0625 438.46875 L 367.625 436.34375 L 364.34375 435.9375 L 361.21875 436.125 L 360.375 427.9375 L 363.4375 427.46875 L 366.5625 426.40625 L 372.4375 422.96875 L 371.25 417.34375 L 364.5 416.625 L 361.1875 416.90625 L 358.1875 417.71875 L 355.65625 409.90625 L 358.5625 408.8125 L 361.40625 407.09375 L 366.4375 402.53125 L 364.09375 397.28125 L 357.34375 397.96875 L 354.1875 398.9375 L 351.40625 400.375 L 347.3125 393.25 L 349.90625 391.5625 L 352.34375 389.3125 L 356.3125 383.8125 L 352.9375 379.15625 L 346.46875 381.21875 L 343.59375 382.84375 L 341.1875 384.8125 L 335.65625 378.6875 L 337.875 376.5 L 339.78125 373.8125 L 342.5 367.59375 L 338.25 363.75 L 332.34375 367.125 L 329.875 369.28125 L 327.90625 371.71875 L 321.25 366.875 L 322.96875 364.28125 L 324.25 361.25 L 325.65625 354.59375 L 320.6875 351.71875 L 315.59375 356.25 L 313.625 358.875 L 312.21875 361.65625 L 304.71875 358.3125 L 305.84375 355.40625 L 306.46875 352.1875 L 306.4375 345.375 L 301 343.59375 L 296.96875 349.09375 L 295.59375 352.09375 L 294.78125 355.09375 L 286.75 353.375 L 287.25 350.3125 L 287.1875 347 L 285.75 340.375 L 280.03125 339.78125 L 277.25 345.96875 L 276.5 349.1875 L 276.375 352.28125 L 268.125 352.28125 L 268 349.1875 L 267.25 345.96875 L 264.46875 339.78125 z M 270.25 363.84375 C 270.91472 363.82691 271.58122 363.84375 272.25 363.84375 C 272.9501 363.84375 273.6481 363.85655 274.34375 363.875 C 277.6314 370.64503 283.94804 384.8928 283.75 394.28125 C 283.55953 403.31061 280.22674 410.97045 276.34375 418.46875 C 275.15587 418.25752 273.93052 418.14819 272.6875 418.125 C 270.53614 408.97579 267.69753 399.95698 262.46875 392 C 257.44056 384.34827 245.70815 375.78422 239.0625 371.28125 C 248.55737 366.77168 259.10894 364.12601 270.25 363.84375 z M 278.5625 364.09375 C 291.03916 365.09847 302.67359 369.06698 312.78125 375.28125 C 312.24319 382.78929 310.58381 398.282 305.71875 406.3125 C 301.04331 414.02999 294.32016 419.00908 287.21875 423.5625 C 286.29308 422.78204 285.29101 422.06742 284.25 421.4375 C 286.95884 412.44192 288.98727 403.22415 288.4375 393.71875 C 287.9097 384.59315 282.06849 371.32474 278.5625 364.09375 z M 235.34375 373.1875 C 241.57232 377.40349 254.16227 386.60952 258.6875 394.84375 C 263.03809 402.7602 263.99227 411.06683 264.375 419.5 C 263.21702 419.91832 262.09529 420.41107 261.03125 421 C 254.58858 414.14957 247.60213 407.77737 239.09375 403.5 C 230.93324 399.3975 216.5504 397.83033 208.53125 397.25 C 215.4428 387.27644 224.62779 379.00749 235.34375 373.1875 z M 316.3125 377.625 C 326.28922 384.53413 334.58419 393.68882 340.40625 404.40625 C 336.19026 410.63482 326.98423 423.22477 318.75 427.75 C 310.83862 432.0978 302.52802 433.07813 294.09375 433.46875 C 293.67852 432.31499 293.17831 431.18577 292.59375 430.125 C 299.44874 423.68518 305.81466 416.6993 310.09375 408.1875 C 314.19601 400.02746 315.73209 385.64444 316.3125 377.625 z M 206.21875 400.78125 C 213.72749 401.31946 229.22016 402.9791 237.25 407.84375 C 244.96815 412.51959 249.97695 419.23472 254.53125 426.34375 C 253.95509 427.0245 253.40204 427.7241 252.90625 428.46875 C 245.76922 426.38858 238.45959 424.88087 230.875 425.0625 C 220.05 425.32173 203.14143 431.58258 195.03125 434.84375 C 196.06171 422.42417 200.02416 410.84902 206.21875 400.78125 z M 342.28125 408.15625 C 347.0584 418.2187 349.75 429.46416 349.75 441.34375 C 349.75 442.03341 349.73666 442.72091 349.71875 443.40625 C 342.94967 446.69358 328.70204 453.01057 319.3125 452.8125 C 318.1966 452.78896 317.10831 452.73926 316.03125 452.625 C 315.49272 452.56787 314.93589 452.48424 314.40625 452.40625 C 308.58025 451.54834 303.27246 449.47204 298.125 446.96875 C 297.1891 446.51361 296.27145 446.04056 295.34375 445.5625 C 295.26133 445.52003 295.17618 445.48013 295.09375 445.4375 C 295.30694 444.24402 295.44545 443.03046 295.46875 441.78125 C 304.62839 439.62224 313.62734 436.76623 321.59375 431.53125 C 329.23852 426.50764 337.77483 414.80529 342.28125 408.15625 z M 272.25 427.03125 C 280.13978 427.03125 286.53125 433.42272 286.53125 441.3125 C 286.53125 449.20228 280.13978 455.625 272.25 455.625 C 264.36022 455.625 257.96875 449.20228 257.96875 441.3125 C 257.96875 433.42272 264.36022 427.03125 272.25 427.03125 z M 229.46875 429.71875 C 229.95006 429.71943 230.41531 429.72478 230.875 429.75 C 237.93318 430.13721 243.96367 432.59592 249.75 435.625 C 249.40275 436.99874 249.18378 438.41603 249.09375 439.875 C 241.8669 441.64396 234.76461 443.98442 228.28125 447.9375 C 219.02472 453.58146 207.50947 467.47335 202.125 474.34375 C 197.40384 464.32937 194.75 453.14913 194.75 441.34375 C 194.75 440.54952 194.78878 439.75724 194.8125 438.96875 C 202.79414 435.67234 218.66208 429.70337 229.46875 429.71875 z M 349.5 447.59375 C 348.4952 460.19672 344.46956 471.94288 338.15625 482.125 C 329.21753 480.93919 311.32512 477.93591 302.28125 472.03125 C 296.35787 468.16393 292.37379 463.01405 288.875 457.5 C 290.09931 456.24083 291.17845 454.85409 292.09375 453.34375 C 301.10886 456.05582 310.35776 458.0817 319.875 457.53125 C 329.01179 457.0028 342.27529 451.09814 349.5 447.59375 z M 249.53125 447.65625 C 249.66693 447.65015 249.80176 447.66181 249.9375 447.65625 C 250.33265 449.05107 250.83267 450.41282 251.46875 451.6875 C 246.09632 456.82539 241.10411 462.37134 237.46875 469.03125 C 232.27653 478.54332 229.26015 496.32245 228.03125 504.96875 C 218.04525 498.01849 209.76851 488.80037 203.96875 478.03125 C 209.45468 470.89334 220.97458 456.88744 230.625 452 C 236.80829 448.86848 243.13843 447.94377 249.53125 447.65625 z M 256.0625 457.96875 C 257.09527 458.97434 258.23232 459.85561 259.4375 460.65625 C 257.34102 467.79409 255.78683 475.09087 255.96875 482.6875 C 256.22849 493.534 262.52567 510.50274 265.78125 518.59375 C 253.26014 517.56039 241.59257 513.52716 231.46875 507.25 C 232.65203 498.32064 235.62054 480.42814 241.53125 471.375 C 245.39314 465.45993 250.54503 461.46144 256.0625 457.96875 z M 282.625 462.09375 C 287.75771 467.46924 293.27506 472.45701 299.9375 476.09375 C 309.44957 481.28598 327.25995 484.30235 335.90625 485.53125 C 328.95315 495.53331 319.71951 503.81829 308.9375 509.625 C 301.79466 504.13413 287.7901 492.58085 282.90625 482.9375 C 279.71974 476.64563 278.83323 470.19507 278.5625 463.6875 C 279.98121 463.28817 281.3304 462.74201 282.625 462.09375 z M 266.5625 463.84375 C 267.9296 464.18738 269.36119 464.41097 270.8125 464.5 C 272.57228 471.72408 274.88935 478.79572 278.84375 485.28125 C 284.48742 494.5373 298.41047 506.05267 305.28125 511.4375 C 295.25736 516.1697 284.07004 518.84375 272.25 518.84375 C 271.45594 518.84375 270.66331 518.83621 269.875 518.8125 C 266.43428 510.48482 260.09543 493.47959 260.6875 482.6875 C 261.07444 475.6342 263.53877 469.62206 266.5625 463.84375 z "
       id="path5264" />
  </g>
  <path
     id="path4662"
     d="M 533.03125 268.875 L 531.0625 272.21875 L 529.40625 275.5625 L 527.875 275.65625 L 525.875 272.46875 L 523.5625 269.375 L 522.34375 269.5 L 520.71875 273.03125 L 519.40625 276.53125 L 517.90625 276.78125 L 515.59375 273.84375 L 512.96875 270.96875 L 511.75 271.25 L 510.5 274.90625 L 509.59375 278.5625 L 508.09375 278.9375 L 505.5 276.25 L 502.59375 273.6875 L 501.40625 274.0625 L 500.5625 277.875 L 500.03125 281.5625 L 498.59375 282.125 L 495.71875 279.71875 L 492.53125 277.46875 L 491.40625 277.96875 L 490.96875 281.84375 L 490.8125 285.59375 L 489.46875 286.28125 L 486.34375 284.1875 L 482.96875 282.28125 L 481.875 282.90625 L 481.84375 286.78125 L 482.09375 290.53125 L 480.8125 291.375 L 477.5 289.625 L 473.9375 288.0625 L 472.9375 288.8125 L 473.28125 292.65625 L 473.9375 296.375 L 472.75 297.3125 L 469.25 295.9375 L 465.5625 294.78125 L 464.625 295.59375 L 465.40625 299.40625 L 466.40625 303 L 465.34375 304.09375 L 461.71875 303.0625 L 457.9375 302.3125 L 457.09375 303.21875 L 458.25 306.9375 L 459.65625 310.40625 L 458.6875 311.59375 L 455 310.96875 L 451.125 310.59375 L 450.40625 311.59375 L 451.9375 315.15625 L 453.6875 318.5 L 452.84375 319.78125 L 449.09375 319.53125 L 445.21875 319.5625 L 444.625 320.625 L 446.5 324 L 448.59375 327.125 L 447.90625 328.5 L 444.15625 328.65625 L 440.3125 329.09375 L 439.8125 330.21875 L 442.03125 333.375 L 444.4375 336.28125 L 443.90625 337.6875 L 440.1875 338.21875 L 436.40625 339.09375 L 436.03125 340.25 L 438.59375 343.15625 L 441.28125 345.78125 L 440.875 347.25 L 437.25 348.1875 L 433.5625 349.40625 L 433.3125 350.625 L 436.15625 353.25 L 439.09375 355.59375 L 438.875 357.09375 L 435.34375 358.375 L 431.8125 360 L 431.6875 361.21875 L 434.8125 363.5625 L 437.96875 365.5625 L 437.90625 367.0625 L 434.53125 368.71875 L 431.1875 370.71875 L 431.1875 371.9375 L 434.53125 373.9375 L 437.90625 375.59375 L 437.96875 377.09375 L 434.8125 379.09375 L 431.6875 381.4375 L 431.8125 382.65625 L 435.34375 384.28125 L 438.875 385.5625 L 439.09375 387.0625 L 436.15625 389.40625 L 433.3125 392.03125 L 433.5625 393.25 L 437.25 394.46875 L 440.875 395.40625 L 441.28125 396.875 L 438.59375 399.5 L 436.03125 402.40625 L 436.40625 403.59375 L 440.1875 404.4375 L 443.90625 404.96875 L 444.4375 406.375 L 442.03125 409.28125 L 439.8125 412.4375 L 440.3125 413.5625 L 444.15625 414.03125 L 447.90625 414.15625 L 448.59375 415.53125 L 446.5 418.65625 L 444.625 422.03125 L 445.21875 423.09375 L 449.09375 423.125 L 452.84375 422.90625 L 453.6875 424.15625 L 451.9375 427.5 L 450.40625 431.0625 L 451.125 432.0625 L 455 431.6875 L 458.6875 431.0625 L 459.65625 432.25 L 458.25 435.71875 L 457.09375 439.4375 L 457.9375 440.34375 L 461.71875 439.59375 L 465.34375 438.5625 L 466.40625 439.65625 L 465.40625 443.25 L 464.625 447.0625 L 465.5625 447.875 L 469.25 446.71875 L 472.75 445.34375 L 473.9375 446.3125 L 473.28125 450 L 472.9375 453.84375 L 473.9375 454.59375 L 477.5 453.03125 L 480.8125 451.3125 L 482.09375 452.125 L 481.84375 455.875 L 481.875 459.75 L 482.96875 460.375 L 486.34375 458.46875 L 489.46875 456.375 L 490.8125 457.0625 L 490.96875 460.8125 L 491.40625 464.6875 L 492.53125 465.1875 L 495.71875 462.9375 L 498.59375 460.53125 L 500.03125 461.09375 L 500.5625 464.8125 L 501.40625 468.59375 L 502.59375 468.96875 L 505.5 466.40625 L 508.09375 463.71875 L 509.59375 464.09375 L 510.5 467.75 L 511.75 471.40625 L 512.96875 471.6875 L 515.59375 468.8125 L 517.90625 465.875 L 519.40625 466.125 L 520.71875 469.625 L 522.34375 473.15625 L 523.5625 473.28125 L 525.875 470.1875 L 527.875 467 L 529.40625 467.09375 L 531.0625 470.4375 L 533.03125 473.78125 L 534.28125 473.78125 L 536.25 470.4375 L 537.90625 467.09375 L 539.4375 467 L 541.4375 470.1875 L 543.75 473.28125 L 544.96875 473.15625 L 546.59375 469.625 L 547.90625 466.125 L 549.40625 465.875 L 551.71875 468.8125 L 554.34375 471.6875 L 555.5625 471.40625 L 556.8125 467.75 L 557.71875 464.09375 L 559.1875 463.71875 L 561.8125 466.40625 L 564.71875 468.96875 L 565.90625 468.59375 L 566.75 464.8125 L 567.28125 461.09375 L 568.71875 460.53125 L 571.59375 462.9375 L 574.75 465.1875 L 575.90625 464.6875 L 576.34375 460.8125 L 576.5 457.0625 L 577.84375 456.375 L 580.96875 458.46875 L 584.34375 460.375 L 585.40625 459.75 L 585.46875 455.875 L 585.21875 452.125 L 586.5 451.3125 L 589.8125 453.03125 L 593.375 454.59375 L 594.375 453.84375 L 594 450 L 593.375 446.3125 L 594.5625 445.34375 L 598.0625 446.71875 L 601.75 447.875 L 602.65625 447.0625 L 601.90625 443.25 L 600.875 439.65625 L 601.96875 438.5625 L 605.5625 439.59375 L 609.375 440.34375 L 610.21875 439.4375 L 609.0625 435.71875 L 607.65625 432.25 L 608.625 431.0625 L 612.3125 431.6875 L 616.1875 432.0625 L 616.90625 431.0625 L 615.375 427.5 L 613.625 424.15625 L 614.46875 422.90625 L 618.1875 423.125 L 622.0625 423.09375 L 622.6875 422.03125 L 620.78125 418.65625 L 618.71875 415.53125 L 619.40625 414.15625 L 623.15625 414.03125 L 627 413.5625 L 627.5 412.4375 L 625.25 409.28125 L 622.875 406.375 L 623.40625 404.96875 L 627.125 404.4375 L 630.90625 403.59375 L 631.28125 402.40625 L 628.71875 399.5 L 626.03125 396.875 L 626.4375 395.40625 L 630.0625 394.46875 L 633.75 393.25 L 634 392.03125 L 631.15625 389.40625 L 628.1875 387.0625 L 628.4375 385.5625 L 631.96875 384.28125 L 635.5 382.65625 L 635.625 381.4375 L 632.5 379.09375 L 629.34375 377.09375 L 629.40625 375.59375 L 632.78125 373.9375 L 636.125 371.9375 L 636.125 370.71875 L 632.78125 368.71875 L 629.40625 367.0625 L 629.34375 365.5625 L 632.5 363.5625 L 635.625 361.21875 L 635.5 360 L 631.96875 358.375 L 628.4375 357.09375 L 628.1875 355.59375 L 631.15625 353.25 L 634 350.625 L 633.75 349.40625 L 630.0625 348.1875 L 626.4375 347.25 L 626.03125 345.78125 L 628.71875 343.15625 L 631.28125 340.25 L 630.90625 339.09375 L 627.125 338.21875 L 623.40625 337.6875 L 622.875 336.28125 L 625.25 333.375 L 627.5 330.21875 L 627 329.09375 L 623.15625 328.65625 L 619.40625 328.5 L 618.71875 327.125 L 620.78125 324 L 622.6875 320.625 L 622.0625 319.5625 L 618.1875 319.53125 L 614.46875 319.78125 L 613.625 318.5 L 615.375 315.15625 L 616.90625 311.59375 L 616.1875 310.59375 L 612.3125 310.96875 L 608.625 311.59375 L 607.65625 310.40625 L 609.0625 306.9375 L 610.21875 303.21875 L 609.375 302.3125 L 605.5625 303.0625 L 601.96875 304.09375 L 600.875 303 L 601.90625 299.40625 L 602.65625 295.59375 L 601.75 294.78125 L 598.0625 295.9375 L 594.5625 297.3125 L 593.375 296.375 L 594 292.65625 L 594.375 288.8125 L 593.375 288.0625 L 589.8125 289.625 L 586.5 291.375 L 585.21875 290.53125 L 585.46875 286.78125 L 585.40625 282.90625 L 584.34375 282.28125 L 580.96875 284.1875 L 577.84375 286.28125 L 576.5 285.59375 L 576.34375 281.84375 L 575.90625 277.96875 L 574.75 277.46875 L 571.59375 279.71875 L 568.71875 282.125 L 567.28125 281.5625 L 566.75 277.875 L 565.90625 274.0625 L 564.71875 273.6875 L 561.8125 276.25 L 559.1875 278.9375 L 557.71875 278.5625 L 556.8125 274.90625 L 555.5625 271.25 L 554.34375 270.96875 L 551.71875 273.84375 L 549.40625 276.78125 L 547.90625 276.53125 L 546.59375 273.03125 L 544.96875 269.5 L 543.75 269.375 L 541.4375 272.46875 L 539.4375 275.65625 L 537.90625 275.5625 L 536.25 272.21875 L 534.28125 268.875 L 533.03125 268.875 z M 533.65625 282.40625 C 547.619 282.40625 560.8343 285.63927 572.59375 291.375 L 559.34375 314.3125 C 551.53437 310.76106 542.85633 308.78125 533.71875 308.78125 C 524.53572 308.78125 515.83954 310.79019 508 314.375 L 494.71875 291.375 C 506.4782 285.63927 519.6935 282.40625 533.65625 282.40625 z M 483.90625 297.625 L 497.21875 320.6875 C 483.23037 330.9094 473.68834 346.8437 472.03125 365.0625 L 444.9375 365.0625 C 446.89774 336.99279 461.89673 312.51084 483.90625 297.625 z M 583.40625 297.625 C 605.41577 312.51084 620.41476 336.99279 622.375 365.0625 L 595.4375 365.0625 C 593.77685 346.8045 584.19388 330.84421 570.15625 320.625 L 583.40625 297.625 z M 533.71875 320.03125 C 540.81512 320.03125 547.58584 321.4613 553.71875 324.09375 L 543.46875 341.84375 C 540.38626 340.81937 537.0827 340.25 533.65625 340.25 C 530.2298 340.25 526.92624 340.81937 523.84375 341.84375 L 513.65625 324.15625 C 519.81621 321.49611 526.58304 320.03125 533.71875 320.03125 z M 564.46875 330.40625 C 575.18566 338.58985 582.55016 350.95883 584.125 365.0625 L 564.09375 365.0625 C 562.72311 358.36434 559.20622 352.46548 554.28125 348.09375 L 564.46875 330.40625 z M 502.875 330.5 L 513.03125 348.09375 C 508.10628 352.46548 504.58939 358.36434 503.21875 365.0625 L 483.34375 365.0625 C 484.91323 351.00675 492.21728 338.68403 502.875 330.5 z M 533.65625 356.5 C 541.8419 356.5 548.46875 363.1581 548.46875 371.34375 C 548.46875 379.5294 541.8419 386.15625 533.65625 386.15625 C 525.4706 386.15625 518.84375 379.5294 518.84375 371.34375 C 518.84375 363.1581 525.4706 356.5 533.65625 356.5 z M 444.9375 377.5625 L 472.15625 377.5625 C 474.12461 395.49857 483.7464 411.13138 497.6875 421.125 L 483.90625 445.03125 C 461.88058 430.14301 446.88004 405.65659 444.9375 377.5625 z M 483.46875 377.5625 L 503.21875 377.5625 C 504.585 384.27298 508.09894 390.18425 513.03125 394.5625 L 503.34375 411.34375 C 492.71422 403.37976 485.32261 391.3577 483.46875 377.5625 z M 564.09375 377.5625 L 584 377.5625 C 582.14089 391.39684 574.67804 403.44287 564 411.40625 L 554.28125 394.5625 C 559.21356 390.18425 562.7275 384.27298 564.09375 377.5625 z M 595.3125 377.5625 L 622.375 377.5625 C 620.43246 405.65659 605.43192 430.14301 583.40625 445.03125 L 569.65625 421.21875 C 583.66604 411.22906 593.33832 395.55324 595.3125 377.5625 z M 523.84375 400.8125 C 526.92624 401.83688 530.2298 402.40625 533.65625 402.40625 C 537.0827 402.40625 540.38626 401.83688 543.46875 400.8125 L 553.15625 417.59375 C 547.17122 420.07869 540.60233 421.46875 533.71875 421.46875 C 526.78693 421.46875 520.20629 420.04931 514.1875 417.53125 L 523.84375 400.8125 z M 508.53125 427.34375 C 516.23193 430.77698 524.74361 432.71875 533.71875 432.71875 C 542.65055 432.71875 551.14104 430.80824 558.8125 427.40625 L 572.625 451.3125 C 560.85987 457.05152 547.62797 460.25 533.65625 460.25 C 519.68453 460.25 506.45263 457.05152 494.6875 451.3125 L 508.53125 427.34375 z "
     style="fill:none;fill-opacity:1;stroke:#000000;stroke-width:1;stroke-linejoin:round;stroke-miterlimit:4;stroke-opacity:1;stroke-dasharray:none;stroke-dashoffset:0" />
</svg>
